<?xml version="1.0" standalone="no"?>
<!DOCTYPE svg PUBLIC "-//W3C//DTD SVG 20010904//EN"
 "http://www.w3.org/TR/2001/REC-SVG-20010904/DTD/svg10.dtd">
<svg version="1.0" xmlns="http://www.w3.org/2000/svg"
 width="280.000000pt" height="280.000000pt" viewBox="0 0 280.000000 280.000000"
 preserveAspectRatio="xMidYMid meet">

<g transform="translate(0.000000,280.000000) scale(0.100000,-0.100000)"
fill="#000000" stroke="none">
<path d="M1255 2794 c-121 -19 -215 -40 -305 -70 -473 -157 -833 -573 -926
-1069 -26 -137 -26 -373 0 -510 105 -561 531 -994 1099 -1117 146 -31 408 -31
554 0 568 123 994 556 1099 1117 26 137 26 373 0 510 -105 559 -534 996 -1094
1115 -94 20 -355 35 -427 24z m325 -1204 c90 -146 194 -313 231 -372 37 -58
65 -109 62 -112 -4 -3 -218 -6 -476 -6 -407 0 -468 2 -464 15 5 12 376 613
444 719 14 21 28 34 32 30 5 -5 82 -128 171 -274z"/>
</g>
</svg>
